<svg width="8" height="10" viewBox="0 0 8 10" fill="none" xmlns="http://www.w3.org/2000/svg">
<path d="M2.62163 5.33964L2.62163 0.659506C2.62163 0.400099 2.83348 0.188251 3.09289 0.188251L4.97791 0.188251C5.23732 0.188251 5.44917 0.4001 5.44917 0.659507L5.44917 5.33964L7.52874 5.33964C7.78815 5.33964 8 5.54933 8 5.8109C8 5.93628 7.95028 6.05733 7.86165 6.14596L4.33155 9.6739C4.14781 9.85764 3.84949 9.85764 3.66574 9.6739L0.13781 6.1438C-0.0459372 5.96005 -0.0459372 5.66174 0.13781 5.47799C0.22644 5.38936 0.347497 5.33964 0.472877 5.33964L2.62163 5.33964Z" fill="#FF4545"/>
</svg>
