<svg width="24" height="24" viewBox="0 0 24 24" fill="none"
  xmlns="http://www.w3.org/2000/svg">
  <path d="M20.7588 3.05566C21.7244 3.05572 22.5098 3.84144 22.5098 4.80469V19.3408C22.5096 20.3061 21.7221 21.0915 20.7568 21.0918H3.28809C2.32269 21.0916 1.53727 20.3062 1.53711 19.3408V4.80664C1.53727 3.84125 2.32269 3.05582 3.28809 3.05566H20.7588ZM3.28809 4.47656C3.11009 4.47673 2.95996 4.62666 2.95996 4.80469V17.3555L5.96777 13.0127C6.16934 12.7221 6.50411 12.5342 6.87207 12.5107C7.23766 12.485 7.59905 12.6233 7.84277 12.8857L9.94238 15.1426L13.749 9.6543C13.967 9.34023 14.335 9.15039 14.7334 9.15039C15.1293 9.15055 15.5018 9.34036 15.7197 9.6543L21.0869 17.3506V4.80469C21.0869 4.62659 20.9369 4.47662 20.7588 4.47656H3.28809ZM6.39844 5.93945C7.28438 5.93945 8.00391 6.65898 8.00391 7.54492C8.00364 8.43064 7.28421 9.15039 6.39844 9.15039C5.51501 9.15039 4.79323 8.43064 4.79297 7.54492C4.79297 6.65898 5.5125 5.93945 6.39844 5.93945ZM6.39844 7.0498C6.12891 7.0498 5.90898 7.27305 5.9043 7.54492C5.90456 7.81658 6.12673 8.03906 6.39844 8.03906C6.67249 8.03906 6.89231 7.81658 6.89258 7.54492C6.89258 7.27305 6.67031 7.0498 6.39844 7.0498Z" fill="white"/>
</svg>
