<svg width="12" height="12" viewBox="0 0 12 12" fill="none"
  xmlns="http://www.w3.org/2000/svg">
  <mask id="mask0_4120_57520" style="mask-type:luminance" maskUnits="userSpaceOnUse" x="0" y="0" width="12" height="12">
    <rect width="12" height="12" fill="white"/>
  </mask>
  <g mask="url(#mask0_4120_57520)">
    <path fill-rule="evenodd" clip-rule="evenodd" d="M6 0.75C8.89949 0.75 11.25 3.10051 11.25 6C11.25 8.89949 8.89949 11.25 6 11.25C3.10051 11.25 0.75 8.89949 0.75 6C0.75 3.10051 3.10051 0.75 6 0.75ZM6 1.59375C3.5665 1.59375 1.59375 3.5665 1.59375 6C1.59375 8.4335 3.5665 10.4062 6 10.4062C8.4335 10.4062 10.4062 8.4335 10.4062 6C10.4062 3.5665 8.4335 1.59375 6 1.59375ZM5.27344 4.79297V4.69922C5.27344 4.49211 5.44133 4.32422 5.64844 4.32422H6.04688C6.25006 4.32422 6.41551 4.48582 6.4217 4.68751L6.42188 4.6875V8.20312H6.70312C6.93612 8.20312 7.125 8.392 7.125 8.625C7.125 8.858 6.93612 9.04688 6.70312 9.04688H5.29688C5.06388 9.04688 4.875 8.858 4.875 8.625C4.875 8.392 5.06388 8.20312 5.29688 8.20312H5.57812L5.57813 5.16139C5.40463 5.12848 5.27344 4.97604 5.27344 4.79297ZM6 2.70703C6.31713 2.70703 6.57422 2.96412 6.57422 3.28125C6.57422 3.59838 6.31713 3.85547 6 3.85547C5.68287 3.85547 5.42578 3.59838 5.42578 3.28125C5.42578 2.96412 5.68287 2.70703 6 2.70703Z" fill="currentColor"/>
  </g>
</svg>
