<svg width="16" height="16" viewBox="0 0 16 16" fill="none"
  xmlns="http://www.w3.org/2000/svg">
  <mask id="mask0_4032_89331" style="mask-type:luminance" maskUnits="userSpaceOnUse" x="0" y="0" width="16" height="16">
    <rect width="16" height="16" fill="white"/>
  </mask>
  <g mask="url(#mask0_4032_89331)">
    <path fill-rule="evenodd" clip-rule="evenodd" d="M8 1C11.866 1 15 4.13401 15 8C15 11.866 11.866 15 8 15C4.13401 15 1 11.866 1 8C1 4.13401 4.13401 1 8 1ZM8 2.125C4.75533 2.125 2.125 4.75533 2.125 8C2.125 11.2447 4.75533 13.875 8 13.875C11.2447 13.875 13.875 11.2447 13.875 8C13.875 4.75533 11.2447 2.125 8 2.125ZM8 11.0312C8.42284 11.0312 8.76562 11.374 8.76562 11.7969C8.76562 12.2197 8.42284 12.5625 8 12.5625C7.57716 12.5625 7.23438 12.2197 7.23438 11.7969C7.23438 11.374 7.57716 11.0312 8 11.0312ZM8.00001 3.4375C8.33171 3.4375 8.6006 3.70639 8.6006 4.03809C8.6006 4.04606 8.60044 4.05404 8.60012 4.062L8.36574 9.94303C8.35821 10.132 8.20286 10.2812 8.01377 10.2812H7.98626C7.79717 10.2812 7.64182 10.132 7.63429 9.94303L7.3999 4.062C7.38669 3.73057 7.64466 3.45119 7.97609 3.43798C7.98406 3.43766 7.99204 3.4375 8.00001 3.4375Z" fill="currentColor"/>
  </g>
</svg>
