<svg width="16" height="16" viewBox="0 0 16 16" fill="none"
  xmlns="http://www.w3.org/2000/svg">
  <path d="M7.04102 7.38477H8.88281V6.1543H10.7285V8H8.88477V12.9229H10.7285V14.7686H8.88477V16H7.03906V14.7686H5.19531V12.9229H7.03906V8H5.19531V6.1543H7.04102V7.38477ZM7.04102 14.1543H8.88281V14.1533H7.04102V14.1543ZM5.18945 4.30664H3.3457V4.92285H5.18945V6.76855H3.3457V11.6924H5.18945V13.5381H3.34375V12.3066H1.5V5.53906H3.34375V5.53809H1.5V3.69238H3.34375V2.46094H5.18945V4.30664ZM12.5801 3.69238H14.4229V5.53809H12.5801V5.53906H14.4238V10.4619H14.4229V12.3066H12.5801V13.5381H10.7344V11.6924H12.5771V10.4609H12.5781V6.76855H10.7344V4.92285H12.5771V4.30664H10.7344V2.46094H12.5801V3.69238ZM8.88477 1.23047H10.7285V3.07617H8.88281V1.8457H7.04102V3.07617H5.19531V1.23047H7.03906V0H8.88477V1.23047Z" fill="currentColor"/>
</svg>
