<svg width="26" height="32" viewBox="0 0 26 32" fill="none"
  xmlns="http://www.w3.org/2000/svg">
  <path d="M14.7686 2.46191H18.4609V4.92285H22.1533V7.38477H25.8457V24.6152H22.1533V27.0771H18.4609V29.5381H14.7686V32H11.0771V29.5381H7.38477V27.0771H3.69238V24.6152H0V7.38477H3.69141V4.92285H7.38379V8.61523H3.69238V9.8457H7.38477V12.3076H11.0771V14.7695H14.7686V12.3076H18.4609V9.8457H22.1533V8.61523H18.4609V6.1543H14.7686V3.69238H11.0771V6.1543H7.38477V2.46191H11.0771V0H14.7686V2.46191ZM3.69238 23.3848H7.38477V25.8457H11.0771V16H7.38477V13.5381H3.69238V23.3848ZM18.4609 16H14.7686V25.8457H18.4609V23.3848H22.1533V13.5381H18.4609V16Z" fill="currentColor"/>
</svg>
