<svg width="30" height="30" viewBox="0 0 30 30" fill="none"
  xmlns="http://www.w3.org/2000/svg">
  <circle cx="15" cy="15" r="15" fill="#E1E1E1"/>
  <rect x="9.99316" y="7" width="3.16098" height="1.58049" fill="black"/>
  <rect x="9.99316" y="13.3223" width="3.16098" height="1.58049" fill="black"/>
  <rect x="9.20215" y="8.58057" width="1.58049" height="4.74146" fill="black"/>
  <rect x="12.3652" y="8.58057" width="1.58049" height="4.74146" fill="black"/>
  <rect x="15.4453" y="8.58057" width="1.58049" height="1.58049" fill="black"/>
  <rect x="17.0273" y="7" width="1.58049" height="1.58049" fill="black"/>
  <rect x="18.6074" y="7" width="1.58049" height="7.90244" fill="black"/>
  <rect x="17.0342" y="16.4028" width="3.16098" height="1.58049" fill="black"/>
  <rect x="17.0342" y="22.7246" width="3.16098" height="1.58049" fill="black"/>
  <rect x="16.2432" y="17.9834" width="1.58049" height="4.74146" fill="black"/>
  <rect x="19.4043" y="17.9834" width="1.58049" height="4.74146" fill="black"/>
  <rect x="9" y="17.9834" width="1.58049" height="1.58049" fill="black"/>
  <rect x="10.5801" y="16.4028" width="1.58049" height="1.58049" fill="black"/>
  <rect x="12.1621" y="16.4028" width="1.58049" height="7.90244" fill="black"/>
</svg>
