<svg width="12" height="12" viewBox="0 0 12 12" fill="none"
  xmlns="http://www.w3.org/2000/svg">
    <path d="M6.00325 10.4997C3.30725 10.4997 1.06425 8.55967 0.59375 5.99967C0.808765 4.83503 1.39456 3.77112 2.26375 2.96667L1.05325 1.75717C0.95943 1.66342 0.906696 1.53623 0.906649 1.4036C0.906602 1.27096 0.959246 1.14374 1.053 1.04992C1.14675 0.956101 1.27394 0.903367 1.40657 0.90332C1.53921 0.903273 1.66643 0.955918 1.76025 1.04967L10.9533 10.2432C11.047 10.337 11.0996 10.4642 11.0996 10.5968C11.0996 10.7295 11.0468 10.8567 10.953 10.9504C10.8592 11.0442 10.732 11.0968 10.5993 11.0968C10.4667 11.0967 10.3395 11.044 10.2458 10.9502L8.94425 9.64867C8.06487 10.2064 7.04459 10.5017 6.00325 10.4997ZM2.97075 3.67467C2.29125 4.29247 1.81791 5.10406 1.61475 5.99967C1.7709 6.6829 2.08438 7.32024 2.53025 7.86097C2.97612 8.40169 3.54206 8.83087 4.18303 9.11433C4.82399 9.39779 5.52227 9.5277 6.2223 9.49373C6.92232 9.45977 7.60474 9.26286 8.21525 8.91867L7.20125 7.90467C6.7696 8.17658 6.25835 8.29372 5.75137 8.23689C5.24439 8.18006 4.77177 7.95262 4.41104 7.59189C4.0503 7.23115 3.82286 6.75853 3.76603 6.25155C3.7092 5.74457 3.82634 5.23333 4.09825 4.80167L2.97075 3.67467ZM6.46025 7.16367L4.83925 5.54267C4.75028 5.76914 4.72934 6.01665 4.779 6.25484C4.82866 6.49304 4.94676 6.71156 5.11881 6.88361C5.29086 7.05566 5.50938 7.17376 5.74758 7.22342C5.98577 7.27308 6.23328 7.25214 6.45975 7.16317L6.46025 7.16367ZM9.80375 7.42567L9.92375 7.21217C10.138 6.83298 10.2957 6.42449 10.3918 5.99967C10.1349 4.87472 9.45586 3.89134 8.49492 3.25252C7.53399 2.61369 6.36446 2.36818 5.22775 2.56667C5.19325 2.57267 5.12025 2.58867 5.00825 2.61467C4.94316 2.63176 4.87531 2.6356 4.80871 2.62596C4.74211 2.61633 4.67812 2.59341 4.62055 2.55858C4.56297 2.52375 4.51298 2.4777 4.47354 2.42318C4.43409 2.36866 4.406 2.30678 4.39093 2.24119C4.37585 2.17561 4.37411 2.10767 4.38579 2.0414C4.39747 1.97513 4.42235 1.91188 4.45894 1.8554C4.49553 1.79893 4.54309 1.75038 4.5988 1.71263C4.65451 1.67489 4.71723 1.64872 4.78325 1.63567C5.18359 1.54511 5.59279 1.49949 6.00325 1.49967C8.69925 1.49967 10.9423 3.43967 11.4128 5.99967C11.2957 6.6359 11.0669 7.24634 10.7368 7.80267C10.7086 7.84856 10.6772 7.89234 10.6428 7.93367C10.5615 8.0336 10.446 8.09982 10.3187 8.11949C10.1915 8.13917 10.0614 8.1109 9.95375 8.04017C9.85557 7.97579 9.78548 7.87655 9.75764 7.76249C9.72979 7.64843 9.74627 7.52805 9.80375 7.42567ZM7.59475 4.40817C7.82021 4.63369 7.99516 4.90455 8.10799 5.20281C8.22083 5.50106 8.26898 5.8199 8.24925 6.13817L5.86425 3.75367C6.18256 3.73401 6.50142 3.78224 6.79968 3.89516C7.09793 4.00808 7.36878 4.18312 7.59425 4.40867L7.59475 4.40817Z" fill="currentColor"/>
</svg>
