<svg width="14" height="14" viewBox="0 0 14 14" fill="none"
  xmlns="http://www.w3.org/2000/svg">
  <mask id="mask0_1994_39761" style="mask-type:luminance" maskUnits="userSpaceOnUse" x="0" y="0" width="14" height="14">
    <rect width="14" height="14" fill="white"/>
  </mask>
  <g mask="url(#mask0_1994_39761)">
    <path fill-rule="evenodd" clip-rule="evenodd" d="M6.93451 2.13281C9.24558 2.13281 11.2765 3.69759 13.0284 6.74624C13.0743 6.82605 13.0953 6.91334 13.0939 6.99915C13.0953 7.08496 13.0743 7.17225 13.0284 7.25207C11.2765 10.3007 9.24558 11.8655 6.93451 11.8655C4.6196 11.8655 2.62719 10.2962 0.958802 7.24284C0.916475 7.16538 0.897144 7.08153 0.898505 6.99916C0.897142 6.91678 0.916473 6.83293 0.958802 6.75546C2.62719 3.7021 4.6196 2.13281 6.93451 2.13281ZM6.93451 3.11719C5.09175 3.11719 3.43062 4.38506 1.9497 6.99907L1.94969 6.99922C3.43061 9.61324 5.09175 10.8811 6.93451 10.8811C8.77894 10.8811 10.4798 9.61183 12.0359 6.99919C10.4798 4.38647 8.77893 3.11719 6.93451 3.11719ZM7.00986 4.8125C8.21798 4.8125 9.19736 5.79188 9.19736 7C9.19736 8.20812 8.21798 9.1875 7.00986 9.1875C5.80174 9.1875 4.82236 8.20812 4.82236 7C4.82236 5.79188 5.80174 4.8125 7.00986 4.8125ZM7.00986 5.79688C6.34539 5.79688 5.80673 6.33553 5.80673 7C5.80673 7.66447 6.34539 8.20312 7.00986 8.20312C7.67433 8.20312 8.21298 7.66447 8.21298 7C8.21298 6.33553 7.67433 5.79688 7.00986 5.79688Z" fill="currentColor"/>
  </g>
</svg>
