<svg width="12" height="12" viewBox="0 0 12 12" fill="none" xmlns="http://www.w3.org/2000/svg">
<path d="M1.5 1.5C1.5 1.36739 1.55268 1.24021 1.64645 1.14645C1.74021 1.05268 1.86739 1 2 1H10C10.1326 1 10.2598 1.05268 10.3536 1.14645C10.4473 1.24021 10.5 1.36739 10.5 1.5V3.25C10.5 3.32885 10.4813 3.40658 10.4455 3.47684C10.4097 3.54709 10.3578 3.60788 10.294 3.65425L7.75 5.5045V9C7.75 9.08634 7.72764 9.17122 7.6851 9.24635C7.64256 9.32149 7.58129 9.38433 7.50725 9.42875L5.00725 10.9288C4.93138 10.9743 4.84478 10.9988 4.75631 11C4.66783 11.0011 4.58065 10.9787 4.50365 10.9351C4.42665 10.8915 4.3626 10.8283 4.31804 10.7518C4.27348 10.6754 4.25 10.5885 4.25 10.5V5.5045L1.706 3.6545C1.64219 3.60811 1.59025 3.54728 1.55445 3.47697C1.51865 3.40667 1.49999 3.32889 1.5 3.25V1.5Z" fill="#484D4E"/>
<path d="M10.75 7.5H8.75V6.5H10.75V7.5ZM10.75 9.5H8.75V8.5H10.75V9.5Z" fill="#484D4E"/>
</svg>
