<svg width="21" height="20" viewBox="0 0 21 20" fill="none"
  xmlns="http://www.w3.org/2000/svg">
  <rect x="7.5" y="9" width="6" height="6" fill="black"/>
  <path d="M10 1.28868C10.3094 1.11004 10.6906 1.11004 11 1.28868L17.7942 5.21132C18.1036 5.38996 18.2942 5.72008 18.2942 6.07735V13.9226C18.2942 14.2799 18.1036 14.61 17.7942 14.7887L11 18.7113C10.6906 18.89 10.3094 18.89 10 18.7113L3.20577 14.7887C2.89637 14.61 2.70577 14.2799 2.70577 13.9226V6.07735C2.70577 5.72009 2.89637 5.38996 3.20577 5.21132L10 1.28868Z" fill="currentColor"/>
  <path d="M7.5 6L9.23205 7V9L7.5 10L5.76795 9V7L7.5 6Z" fill="black"/>
  <path d="M13.5 6L15.2321 7V9L13.5 10L11.7679 9V7L13.5 6Z" fill="black"/>
  <path d="M10.5 11L12.2321 12V14L10.5 15L8.76795 14V12L10.5 11Z" fill="black"/>
  <path d="M13.5 8H7.5L10.5 13L13.5 8Z" stroke="black"/>
</svg>
