<svg width="18" height="18" viewBox="0 0 18 18" fill="none" xmlns="http://www.w3.org/2000/svg">
<path d="M13 2H16V5H18V13H16V16H13V18H5V16H2V13H0V5H2V2H5V0H13V2ZM11.832 8.94824C11.1842 8.96203 10.644 9.18098 10.2119 9.60449C9.85297 9.98611 9.65865 10.4753 9.66504 10.9795C9.66504 11.287 9.72446 11.5749 9.84375 11.8418C9.96302 12.094 10.1304 12.3136 10.3467 12.4971C10.7585 12.8253 11.2867 13.0043 11.832 13C12.1749 12.9869 12.4812 12.9275 12.749 12.8252C13.0245 12.7092 13.2633 12.5582 13.4639 12.374C13.6651 12.1486 13.8066 11.9086 13.8887 11.6562C13.9479 11.4583 13.985 11.2318 14 10.9795C13.9999 10.4461 13.8178 9.98149 13.4531 9.58496C13.2467 9.39292 13.0041 9.23619 12.7373 9.12305C12.4482 9.0193 12.1421 8.95997 11.832 8.94824ZM5.66406 12.918H7.25098L12.3906 5.09277H10.7939L5.66406 12.918ZM11.832 10.1182C12.0926 10.1313 12.3127 10.2236 12.4912 10.3945C12.6555 10.5787 12.7373 10.7817 12.7373 11C12.7373 11.219 12.6555 11.4129 12.4912 11.584C12.3055 11.7623 12.0856 11.8484 11.832 11.8418C11.5714 11.8483 11.3374 11.7623 11.1289 11.584C10.9823 11.4192 10.9031 11.2127 10.9053 11C10.9053 10.7536 11.0019 10.5345 11.1953 10.3438C11.3667 10.2067 11.5792 10.1313 11.832 10.1182ZM6.16797 5C5.86168 5.00227 5.55888 5.06198 5.27832 5.1748C4.99796 5.28758 4.7455 5.45129 4.53613 5.65625C4.17907 6.05284 4.00008 6.51113 4 7.03027C4 7.3109 4.05943 7.59883 4.17871 7.89258C4.30574 8.15907 4.47629 8.38105 4.69238 8.55859C5.11667 8.89299 5.59448 9.06152 6.12305 9.06152C6.49511 9.06151 6.81617 9.00694 7.08398 8.89746C7.35242 8.79518 7.58674 8.64135 7.78809 8.43555C7.98084 8.22382 8.13084 7.98454 8.23438 7.71777C8.30151 7.49223 8.33496 7.26303 8.33496 7.03027C8.33488 6.49736 8.153 6.03234 7.78809 5.63574C7.58642 5.4391 7.343 5.28258 7.07324 5.1748C6.78512 5.06831 6.47842 5.00887 6.16797 5ZM6.16797 6.16895C6.43575 6.17552 6.65935 6.268 6.83789 6.44629C6.99499 6.61672 7.0732 6.81875 7.07324 7.05078C7.07324 7.27696 6.99428 7.47184 6.83789 7.63574C6.75126 7.71814 6.64736 7.78403 6.53223 7.82812C6.41703 7.8722 6.29276 7.89408 6.16797 7.89258C6.03933 7.89753 5.91048 7.8771 5.79102 7.83301C5.67168 7.78892 5.56364 7.72196 5.47461 7.63672C5.32537 7.47937 5.25098 7.28351 5.25098 7.05078C5.25102 6.7913 5.34859 6.57247 5.54199 6.39551C5.71342 6.25126 5.92225 6.17616 6.16797 6.16895Z" fill="currentColor"/>
</svg>
