<svg width="64" height="47" viewBox="0 0 64 47" fill="none"
  xmlns="http://www.w3.org/2000/svg">
  <path d="M37 28.6816H35V30.6816H33V44.6816H37V46.6816H27V44.6816H31V28.6816H33V26.6816H37V28.6816ZM27 44.6816H23V42.6816H27V44.6816ZM41 44.6816H37V42.6816H41V44.6816ZM23 42.6816H19V40.6816H23V42.6816ZM45 42.6816H41V40.6816H45V42.6816ZM19 40.6816H15V38.6816H19V40.6816ZM49 40.6816H45V38.6816H49V40.6816ZM15 20.6816H19V22.6816H15V38.6816H13V18.6816H15V20.6816ZM49 30.6816V28.6816H53V30.6816H51V38.6816H49V32.6816H45V30.6816H49ZM19 33.6816H21V34.6816H23V36.6816H21V35.6816H19V34.6816H17V32.6816H19V33.6816ZM41 36.6816H39V34.6816H41V36.6816ZM39 34.6816H37V32.6816H39V34.6816ZM45 34.6816H41V32.6816H45V34.6816ZM37 32.6816H35V30.6816H37V32.6816ZM31 28.6816H27V26.6816H31V28.6816ZM55 28.6816H53V26.6816H55V28.6816ZM27 26.6816H23V24.6816H27V26.6816ZM41 26.6816H37V24.6816H41V26.6816ZM57 26.6816H55V24.6816H57V26.6816ZM23 24.6816H19V22.6816H23V24.6816ZM45 24.6816H41V22.6816H45V24.6816ZM55 24.6816H53V22.6816H55V24.6816ZM49 22.6816H45V20.6816H49V22.6816ZM53 22.6816H51V20.6816H53V22.6816ZM51 20.6816H49V18.6816H51V20.6816ZM13 18.6816H11V16.6816H13V18.6816ZM19 18.6816H15V16.6816H19V18.6816ZM49 18.6816H45V16.6816H49V18.6816ZM11 16.6816H9V14.6816H11V16.6816ZM23 16.6816H19V14.6816H23V16.6816ZM45 16.6816H41V14.6816H45V16.6816ZM9 14.6816H7V12.6816H9V14.6816ZM27 14.6816H23V12.6816H27V14.6816ZM41 14.6816H37V12.6816H41V14.6816ZM13 12.6816H9V10.6816H13V12.6816ZM31 12.6816H27V10.6816H31V12.6816ZM37 12.6816H33V10.6816H37V12.6816ZM17 10.6816H13V8.68164H17V10.6816ZM33 10.6816H31V8.68164H33V10.6816ZM21 8.68164H17V6.68164H21V8.68164ZM31 8.68164H29V6.68164H31V8.68164ZM25 6.68164H21V4.68164H25V6.68164ZM29 6.68164H27V4.68164H29V6.68164ZM27 4.68164H25V2.68164H27V4.68164Z" fill="currentColor"/>
  <path d="M55.2659 16.0327L53.2678 16.1219L53.1786 14.1239L55.1766 14.0347L55.2659 16.0327ZM57.1746 13.9454L55.1766 14.0347L55.0873 12.0367L57.0853 11.9474L57.1746 13.9454ZM61.1706 13.7668L59.1726 13.8561L59.0833 11.8581L61.0813 11.7688L61.1706 13.7668ZM59.0833 11.8581L57.0853 11.9474L56.996 9.94936L58.994 9.86008L59.0833 11.8581ZM62.99 9.68152L63.0793 11.6795L61.0813 11.7688L60.992 9.7708L62.99 9.68152Z" fill="currentColor"/>
  <path d="M49.4576 10.7353L47.5587 11.3633L46.9307 9.4644L48.8296 8.83645L49.4576 10.7353ZM50.7285 8.20849L48.8296 8.83645L48.2016 6.93759L50.1005 6.30963L50.7285 8.20849ZM54.5262 6.95258L52.6273 7.58053L51.9994 5.68167L53.8982 5.05372L54.5262 6.95258ZM51.9994 5.68167L50.1005 6.30963L49.4726 4.41077L51.3714 3.78281L51.9994 5.68167ZM55.7971 4.42576L53.8982 5.05372L53.2703 3.15486L55.1691 2.5269L55.7971 4.42576ZM56.44 8.49962e-05L57.068 1.89895L55.1691 2.5269L54.5412 0.628041L56.44 8.49962e-05Z" fill="currentColor"/>
</svg>
