<svg width="12" height="12" viewBox="0 0 12 12" fill="none"
  xmlns="http://www.w3.org/2000/svg">
  <circle cx="6" cy="6" r="5.5" stroke="currentColor"/>
  <path d="M6.51172 9.75H5.39941V8.58789H6.51172V9.75ZM6.0625 2.25C6.68375 2.25 7.20909 2.43606 7.62402 2.80273C8.04134 3.17189 8.25293 3.66962 8.25293 4.28125C8.25287 4.55715 8.19818 4.811 8.09082 5.03613C7.9827 5.2627 7.76285 5.53495 7.41699 5.86719C7.08448 6.18663 6.86069 6.41603 6.75293 6.5498C6.64914 6.6788 6.56915 6.83574 6.51562 7.01562C6.50957 7.03593 6.50436 7.05485 6.49902 7.07227C6.45614 7.21226 6.4376 7.27045 6.44336 7.54492L6.44531 7.61719H5.42188V7.5459C5.42189 7.18807 5.44904 7.08768 5.50293 6.88867L5.51367 6.84668C5.57562 6.61613 5.67047 6.4112 5.79492 6.23828C5.91666 6.06935 6.13757 5.81974 6.45117 5.49609C6.75936 5.17805 6.96009 4.94514 7.04688 4.80371C7.12944 4.66923 7.1709 4.46086 7.1709 4.18555C7.17083 3.91209 7.0755 3.67651 6.87988 3.46484C6.68823 3.25783 6.40284 3.15234 6.03223 3.15234C5.18577 3.15249 4.77441 3.64632 4.77441 4.66113V4.73242H3.75L3.75195 4.65918C3.7654 4.17326 3.82406 3.79581 3.92676 3.53906C4.03037 3.2802 4.19867 3.04587 4.42578 2.84277C4.65174 2.64097 4.90702 2.48962 5.18457 2.39355C5.46086 2.29809 5.75628 2.25001 6.0625 2.25Z" fill="currentColor"/>
</svg>
