<svg width="32" height="32" viewBox="0 0 32 32" fill="none" xmlns="http://www.w3.org/2000/svg">
<path d="M8.20312 20.7998V17.5996H11.4033V14.4004H8.20312V11.2002H5.00391V8H11.3994V11.2002H14.5996V14.4004H17.7998V17.5996H14.5996V20.7998H11.3994V24H5.00391V20.7998H8.20312Z" fill="#484D4E"/>
<path d="M18.5986 24H15.3984V20.7998H18.5986V24ZM21.7998 24H18.5996V20.7998H18.5986V17.5996H21.7988V20.7998H21.7998V24ZM25 20.7998H21.7998V17.5996H21.7988V14.4004H21.7998V11.2002H25V14.4004H24.999V17.5996H25V20.7998ZM28.1992 17.5996H25V14.4004H28.1992V17.5996ZM21.7988 14.4004H18.5986V11.2002H18.5996V8H21.7998V11.2002H21.7988V14.4004ZM18.5986 11.2002H15.3984V8H18.5986V11.2002Z" fill="#484D4E"/>
</svg>
