<svg width="24" height="24" viewBox="0 0 24 24" fill="none"
  xmlns="http://www.w3.org/2000/svg">
  <path d="M24 24H21.333V21.333H24V24ZM21.333 21.333H18.667V18.667H21.333V21.333ZM13.333 18.667H5.33301V16H13.333V18.667ZM18.667 18.667H16V16H18.667V18.667ZM5.33301 16H2.66699V13.333H5.33301V16ZM16 16H13.333V13.333H16V16ZM2.66699 13.333H0V5.33301H2.66699V13.333ZM18.667 13.333H16V5.33301H18.667V13.333ZM5.33301 5.33301H2.66699V2.66699H5.33301V5.33301ZM16 5.33301H13.333V2.66699H16V5.33301ZM13.333 2.66699H5.33301V0H13.333V2.66699Z" fill="currentColor"/>
</svg>
