<svg width="7" height="10" viewBox="0 0 7 10" fill="none" xmlns="http://www.w3.org/2000/svg">
<path d="M0.497904 5.75H6.0879C6.18679 5.75041 6.28333 5.78014 6.36532 5.83542C6.44732 5.8907 6.51108 5.96906 6.54854 6.06057C6.586 6.15209 6.59549 6.25266 6.57579 6.34957C6.5561 6.44647 6.50812 6.53536 6.4379 6.605L3.6479 9.39499C3.60142 9.44186 3.54612 9.47905 3.48519 9.50444C3.42426 9.52982 3.35891 9.54289 3.2929 9.54289C3.2269 9.54289 3.16155 9.52982 3.10062 9.50444C3.03969 9.47905 2.98439 9.44186 2.9379 9.39499L0.147904 6.605C0.077693 6.53536 0.0297075 6.44647 0.0100149 6.34957C-0.00967767 6.25266 -0.000193059 6.15209 0.0372697 6.06057C0.0747325 5.96906 0.138491 5.8907 0.220483 5.83542C0.302474 5.78014 0.399017 5.75041 0.497904 5.75Z" fill="#484D4E"/>
<path d="M0.497904 4.24992H6.0879C6.18679 4.24951 6.28333 4.21978 6.36532 4.1645C6.44732 4.10922 6.51108 4.03087 6.54854 3.93935C6.586 3.84783 6.59549 3.74726 6.57579 3.65036C6.5561 3.55345 6.50812 3.46456 6.4379 3.39493L3.6479 0.60493C3.60142 0.558066 3.54612 0.520869 3.48519 0.495485C3.42426 0.4701 3.35891 0.457031 3.2929 0.457031C3.2269 0.457031 3.16155 0.4701 3.10062 0.495485C3.03969 0.520869 2.98439 0.558066 2.9379 0.60493L0.147904 3.39493C0.077693 3.46456 0.0297075 3.55345 0.0100149 3.65036C-0.00967767 3.74726 -0.000193059 3.84783 0.0372697 3.93935C0.0747325 4.03087 0.138491 4.10922 0.220483 4.1645C0.302474 4.21978 0.399017 4.24951 0.497904 4.24992Z" fill="#484D4E"/>
</svg>
