<svg width="16" height="16" viewBox="0 0 16 16" fill="none"
  xmlns="http://www.w3.org/2000/svg">
    <path d="M0.656688 10.12C0.828912 10.1195 0.993912 10.0508 1.11552 9.92881C1.23712 9.80685 1.30541 9.64165 1.30541 9.46943V4.87574C1.30541 4.08035 1.96729 3.50309 2.87738 3.50309H13.9808L12.8789 4.59933C12.8182 4.65932 12.77 4.73076 12.7371 4.80952C12.7042 4.88828 12.6873 4.97278 12.6873 5.05813C12.6873 5.14349 12.7042 5.22799 12.7371 5.30675C12.77 5.38551 12.8182 5.45695 12.8789 5.51694C13.0025 5.63509 13.1668 5.70104 13.3377 5.70104C13.5087 5.70104 13.673 5.63509 13.7965 5.51694L15.6242 3.70241C15.7369 3.59101 15.8264 3.45836 15.8874 3.31215C15.9485 3.16593 15.9799 3.00906 15.9799 2.85061C15.9799 2.69216 15.9485 2.53528 15.8874 2.38907C15.8264 2.24286 15.7369 2.11021 15.6242 1.99881L13.7928 0.188039C13.6701 0.0669697 13.5045 -0.000629662 13.3321 4.42081e-06C13.2039 0.000708406 13.0787 0.0394047 12.9725 0.111205C12.8662 0.183005 12.7836 0.284687 12.7351 0.403405C12.6866 0.522123 12.6744 0.65255 12.7 0.77821C12.7256 0.903869 12.7879 1.01912 12.8789 1.10941L13.9808 2.20565H2.88678C2.15582 2.19307 1.4453 2.44707 0.887971 2.92018C0.608075 3.1629 0.384127 3.46341 0.231557 3.80101C0.0789873 4.13861 0.00142294 4.50528 0.00420849 4.87574V9.46943C0.00395874 9.55509 0.0206789 9.63996 0.053404 9.71913C0.086129 9.7983 0.134211 9.8702 0.194874 9.93069C0.255537 9.99118 0.327579 10.0391 0.406843 10.0716C0.486108 10.104 0.571023 10.1205 0.656688 10.12ZM15.346 5.87985C15.2605 5.87985 15.1759 5.89667 15.097 5.92937C15.018 5.96207 14.9463 6.00999 14.8859 6.0704C14.8255 6.13082 14.7776 6.20254 14.7449 6.28147C14.7122 6.36041 14.6954 6.44501 14.6954 6.53045V10.7575C14.6954 11.6826 13.9601 12.4968 13.1234 12.4968H1.99926L3.10114 11.4005C3.1921 11.3104 3.25433 11.1953 3.27999 11.0698C3.30565 10.9443 3.29359 10.814 3.24533 10.6954C3.19707 10.5768 3.11477 10.4751 3.0088 10.4031C2.90283 10.3312 2.77793 10.2922 2.64986 10.2911C2.56405 10.2896 2.47883 10.3055 2.39933 10.3378C2.31983 10.3701 2.2477 10.4182 2.18729 10.4792L0.359594 12.2937C0.246913 12.4051 0.157454 12.5377 0.0963993 12.684C0.0353443 12.8302 0.00390625 12.9871 0.00390625 13.1455C0.00390625 13.304 0.0353443 13.4608 0.0963993 13.607C0.157454 13.7533 0.246913 13.8859 0.359594 13.9973L2.18729 15.8118C2.24779 15.8718 2.31951 15.9193 2.39837 15.9516C2.47722 15.9839 2.56167 16.0003 2.64687 16C2.73208 15.9996 2.81639 15.9825 2.89497 15.9496C2.97356 15.9167 3.04489 15.8686 3.1049 15.8081C3.1649 15.7476 3.2124 15.6758 3.24469 15.597C3.27697 15.5181 3.29341 15.4337 3.29306 15.3485C3.29271 15.2633 3.27558 15.179 3.24265 15.1004C3.20972 15.0218 3.16164 14.9505 3.10114 14.8905L1.99926 13.7942H13.1234C13.5135 13.7901 13.8983 13.7031 14.2523 13.5391C14.6062 13.3751 14.9214 13.1377 15.1767 12.8428C15.692 12.2697 15.9803 11.5281 15.9871 10.7575V6.53045C15.9872 6.35951 15.9199 6.19544 15.7999 6.07369C15.6799 5.95195 15.5169 5.88232 15.346 5.87985Z" fill="currentColor"/>
</svg>
