<svg width="54" height="54" viewBox="0 0 54 54" fill="none"
  xmlns="http://www.w3.org/2000/svg">
  <rect width="54" height="54" rx="4" fill="white"/>
  <path opacity="0.3" d="M6 50.001H4V46.001H6V50.001ZM10.002 50.001H6.00391V48.001H10.002V50.001ZM48 48.001V50.001H44.002V48.001H48ZM50.0039 46.001V50.001H48.0039V46.001H50.0039ZM6 46H4V44H6V46ZM50.0039 44V46H48.0039V44H50.0039ZM6 10.001H4V8.00098H6V10.001ZM50.0039 10.001H48.0039V8.00098H50.0039V10.001ZM6 8H4V4H6V8ZM50.0039 8H48.0039V4H50.0039V8ZM10.002 6H6.00391V4H10.002V6ZM48 6H44.002V4H48V6Z" fill="#232323"/>
  <path d="M34.8965 39H18.8965V36.5996H34.8965V39ZM18.8965 19.7998H34.8965V17.4004H37.2969V36.5996H34.8965V22.2002H18.8965V36.5996H16.4961V17.4004H18.8965V19.7998ZM27.6963 32.5996H22.0967V30.2002H27.6963V32.5996ZM31.6963 28.5996H22.0967V26.2002H31.6963V28.5996ZM34.8965 17.4004H18.8965V15H34.8965V17.4004Z" fill="#232323"/>
</svg>
