<svg width="20" height="20" viewBox="0 0 20 20" fill="none"
  xmlns="http://www.w3.org/2000/svg">
  <path d="M4 15H2V3H4V15ZM18 15H16V3H18V15ZM10 13H8V11H10V13ZM8 11H6V9H8V11ZM12 11H10V9H12V11ZM14 9H12V7H14V9ZM16 3H4V1H16V3Z" fill="currentColor"/>
  <rect x="13" y="17" width="2" height="3" transform="rotate(-90 13 17)" fill="currentColor"/>
  <rect x="4" y="17" width="2" height="3" transform="rotate(-90 4 17)" fill="currentColor"/>
  <rect x="7" y="17" width="6" height="2" fill="currentColor"/>
</svg>
