<svg width="37" height="36" viewBox="0 0 37 36" fill="none" xmlns="http://www.w3.org/2000/svg">
<path d="M29.4863 36H7.2002V32.5713H3.77246V29.1426H0.34375V6.85742H3.77246V3.42871H7.2002V0H29.4863V3.42871H32.915V32.5713H29.4863V36ZM36.3447 29.1426H32.916V6.85742H36.3447V29.1426Z" fill="currentColor"/>
<g clip-path="url(#clip0_503_4644)">
<path d="M21.6782 18L16.0592 21.2381V14.7619L21.6782 18H21.6782ZM26.9163 21.0476V14.9524C26.9163 14.9524 26.9163 12 23.9639 12H12.7258C12.7258 12 9.77344 12 9.77344 14.9524V21.0476C9.77344 21.0476 9.77344 24 12.7258 24H23.8687C23.9639 24 26.9163 24 26.9163 21.0476Z" fill="white"/>
</g>
<defs>
<clipPath id="clip0_503_4644">
<rect width="17.1429" height="17.1429" fill="white" transform="translate(9.77344 9.42871)"/>
</clipPath>
</defs>
</svg>
