<svg width="37" height="36" viewBox="0 0 37 36" fill="none" xmlns="http://www.w3.org/2000/svg">
<path d="M29.6572 36H7.37207V32.5713H3.94043V29.1426H0.511719V6.85742H3.94043V3.42871H7.37207V0H29.6572V3.42871H33.083V32.5713H29.6572V36ZM36.5127 29.1426H33.084V6.85742H36.5127V29.1426Z" fill="currentColor"/>
<path d="M25.0906 12.016C25.0854 12.0058 25.0767 11.9978 25.0661 11.9935C23.8407 11.4313 22.5475 11.0303 21.219 10.8008C21.2069 10.7985 21.1945 10.8002 21.1834 10.8054C21.1723 10.8107 21.1631 10.8193 21.1572 10.83C20.9811 11.1496 20.8213 11.4779 20.6783 11.8136C19.2462 11.5962 17.7895 11.5962 16.3574 11.8136C16.2135 11.4771 16.0511 11.1487 15.8709 10.83C15.8648 10.8195 15.8556 10.8111 15.8445 10.8059C15.8335 10.8007 15.8212 10.7989 15.8091 10.8008C14.4804 11.0299 13.1872 11.4308 11.962 11.9935C11.9515 11.998 11.9427 12.0056 11.9367 12.0152C9.48644 15.6743 8.81524 19.2434 9.14451 22.7683C9.14544 22.777 9.14809 22.7853 9.15231 22.7929C9.15654 22.8005 9.16225 22.8072 9.1691 22.8125C10.5958 23.8689 12.1917 24.6753 13.8885 25.1972C13.9004 25.2008 13.9132 25.2006 13.925 25.1967C13.9369 25.1928 13.9473 25.1854 13.9548 25.1755C14.3192 24.6796 14.6421 24.1545 14.9203 23.6055C14.9241 23.598 14.9263 23.5897 14.9267 23.5813C14.9271 23.5729 14.9257 23.5644 14.9226 23.5566C14.9195 23.5487 14.9148 23.5416 14.9087 23.5357C14.9027 23.5298 14.8954 23.5253 14.8875 23.5224C14.3783 23.3275 13.8853 23.0926 13.4132 22.8199C13.4046 22.8149 13.3974 22.8078 13.3922 22.7993C13.387 22.7908 13.384 22.7812 13.3834 22.7713C13.3828 22.7614 13.3847 22.7514 13.3888 22.7424C13.393 22.7334 13.3993 22.7255 13.4072 22.7195C13.5066 22.6452 13.6042 22.5688 13.7 22.4901C13.7084 22.4831 13.7186 22.4787 13.7294 22.4772C13.7402 22.4758 13.7512 22.4774 13.7611 22.4818C16.8542 23.8934 20.2028 23.8934 23.2593 22.4818C23.2693 22.4771 23.2804 22.4753 23.2913 22.4766C23.3023 22.4779 23.3126 22.4823 23.3211 22.4893C23.4171 22.5684 23.515 22.6452 23.6147 22.7195C23.6226 22.7254 23.629 22.7332 23.6332 22.7422C23.6375 22.7512 23.6394 22.7612 23.6389 22.7711C23.6384 22.781 23.6354 22.7907 23.6303 22.7992C23.6252 22.8077 23.618 22.8148 23.6095 22.8199C23.1384 23.0949 22.645 23.3297 22.1344 23.5216C22.1265 23.5246 22.1193 23.5293 22.1133 23.5353C22.1073 23.5413 22.1026 23.5485 22.0996 23.5564C22.0966 23.5643 22.0952 23.5728 22.0957 23.5813C22.0962 23.5897 22.0984 23.598 22.1023 23.6055C22.3851 24.1514 22.7075 24.6759 23.067 25.1746C23.0743 25.1848 23.0847 25.1925 23.0966 25.1965C23.1085 25.2006 23.1213 25.2008 23.1333 25.1971C24.8332 24.677 26.4318 23.8705 27.8603 22.8125C27.8673 22.8075 27.8731 22.801 27.8773 22.7935C27.8816 22.786 27.8842 22.7777 27.8849 22.7691C28.2791 18.6939 27.225 15.1541 25.0906 12.016ZM15.3822 20.622C14.4509 20.622 13.6836 19.7675 13.6836 18.7179C13.6836 17.6684 14.4361 16.8138 15.3822 16.8138C16.3357 16.8138 17.0956 17.6758 17.0807 18.7179C17.0807 19.7675 16.3282 20.622 15.3822 20.622ZM21.6623 20.622C20.731 20.622 19.9637 19.7675 19.9637 18.7179C19.9637 17.6684 20.7162 16.8138 21.6623 16.8138C22.6158 16.8138 23.3757 17.6758 23.3608 18.7179C23.3608 19.7675 22.6158 20.622 21.6623 20.622Z" fill="white"/>
</svg>
