<svg width="37" height="36" viewBox="0 0 37 36" fill="none" xmlns="http://www.w3.org/2000/svg">
<path d="M29.4854 36H7.2002V32.5713H3.76855V29.1426H0.339844V6.85742H3.76855V3.42871H7.2002V0H29.4854V3.42871H32.9111V32.5713H29.4854V36ZM36.3408 29.1426H32.9121V6.85742H36.3408V29.1426Z" fill="currentColor"/>
<path d="M26.9115 17.5712C26.9115 17.0029 26.6857 16.4579 26.2838 16.056C25.882 15.6541 25.3369 15.4284 24.7686 15.4284C24.3015 15.4332 23.8493 15.593 23.4829 15.8827C22.1573 15.1105 20.6686 14.6612 19.1372 14.5712L19.6686 11.5284C19.6749 11.4784 19.6993 11.4324 19.7372 11.3993C19.7752 11.3661 19.8239 11.348 19.8743 11.3484H19.9343L22.6257 12.1712C22.6657 12.5671 22.8421 12.9367 23.1246 13.2167C23.4072 13.4967 23.7784 13.6698 24.1746 13.7062C24.5707 13.7426 24.9672 13.64 25.2961 13.4161C25.6249 13.1923 25.8657 12.861 25.9771 12.4791C26.0885 12.0971 26.0636 11.6884 25.9066 11.3228C25.7497 10.9572 25.4705 10.6576 25.1169 10.4753C24.7633 10.293 24.3573 10.2394 23.9685 10.3236C23.5796 10.4078 23.2322 10.6247 22.9857 10.937L20.2772 10.1484C20.1402 10.1111 19.9991 10.0909 19.8572 10.0884C19.5045 10.0892 19.1635 10.2142 18.8939 10.4415C18.6243 10.6688 18.4433 10.9838 18.3829 11.3312L17.8343 14.5712C16.204 14.6187 14.6109 15.0693 13.1972 15.8827C12.8307 15.593 12.3785 15.4332 11.9115 15.4284C11.4545 15.4175 11.0061 15.5537 10.6324 15.8168C10.2586 16.0799 9.97916 16.456 9.83519 16.8898C9.69123 17.3237 9.69034 17.7922 9.83265 18.2266C9.97497 18.661 10.253 19.0382 10.6257 19.3027C10.6173 19.4397 10.6173 19.5771 10.6257 19.7141C10.6257 22.5512 14.0543 24.8569 18.34 24.8569C22.6257 24.8569 26.0543 22.5512 26.0543 19.7141C26.0628 19.5771 26.0628 19.4397 26.0543 19.3027C26.3228 19.1013 26.5402 18.8398 26.6891 18.539C26.838 18.2383 26.9141 17.9068 26.9115 17.5712ZM14.0543 18.4284C14.0543 18.1741 14.1297 17.9255 14.271 17.7141C14.4123 17.5026 14.6131 17.3378 14.848 17.2405C15.0829 17.1432 15.3415 17.1178 15.5909 17.1674C15.8403 17.217 16.0694 17.3394 16.2492 17.5192C16.429 17.6991 16.5514 17.9281 16.601 18.1775C16.6506 18.427 16.6252 18.6855 16.5279 18.9204C16.4306 19.1553 16.2658 19.3561 16.0543 19.4974C15.8429 19.6387 15.5943 19.7141 15.34 19.7141C14.999 19.7141 14.672 19.5786 14.4309 19.3375C14.1898 19.0964 14.0543 18.7694 14.0543 18.4284ZM21.0915 22.2341C21.0764 22.292 21.0497 22.3463 21.0128 22.3935C20.9759 22.4407 20.9298 22.4798 20.8772 22.5084C20.0963 22.9248 19.225 23.1427 18.34 23.1427C17.4551 23.1427 16.5837 22.9248 15.8029 22.5084C15.7503 22.4798 15.7041 22.4407 15.6673 22.3935C15.6304 22.3463 15.6036 22.292 15.5886 22.2341C15.5763 22.1753 15.5761 22.1146 15.5879 22.0557C15.5996 21.9967 15.6232 21.9408 15.6572 21.8912L15.9057 21.5398C15.9675 21.457 16.0576 21.3999 16.1588 21.3794C16.26 21.3588 16.3652 21.3763 16.4543 21.4284C17.0426 21.7117 17.6871 21.8588 18.34 21.8588C18.993 21.8588 19.6375 21.7117 20.2257 21.4284C20.3178 21.3788 20.4251 21.3654 20.5266 21.3908C20.628 21.4162 20.7164 21.4785 20.7743 21.5655L21.0229 21.917C21.0848 22.0103 21.1093 22.1235 21.0915 22.2341ZM21.34 19.7141C21.0857 19.7141 20.8372 19.6387 20.6257 19.4974C20.4143 19.3561 20.2495 19.1553 20.1522 18.9204C20.0549 18.6855 20.0294 18.427 20.079 18.1775C20.1286 17.9281 20.2511 17.6991 20.4309 17.5192C20.6107 17.3394 20.8398 17.217 21.0892 17.1674C21.3386 17.1178 21.5971 17.1432 21.832 17.2405C22.067 17.3378 22.2678 17.5026 22.4091 17.7141C22.5503 17.9255 22.6257 18.1741 22.6257 18.4284C22.6257 18.7694 22.4903 19.0964 22.2492 19.3375C22.008 19.5786 21.681 19.7141 21.34 19.7141Z" fill="white"/>
</svg>
