<svg width="37" height="36" viewBox="0 0 37 36" fill="none" xmlns="http://www.w3.org/2000/svg">
<path d="M29.6572 36H7.37207V32.5713H3.94434V29.1426H0.515625V6.85742H3.94434V3.42871H7.37207V0H29.6572V3.42871H33.0869V32.5713H29.6572V36ZM36.5166 29.1426H33.0879V6.85742H36.5166V29.1426Z" fill="currentColor"/>
<g clip-path="url(#clip0_503_4642)">
<g clip-path="url(#clip1_503_4642)">
<path d="M16.5139 27.6426C16.4083 27.6427 16.3038 27.622 16.2063 27.5816C16.1088 27.5413 16.0202 27.4821 15.9456 27.4075C15.8709 27.3329 15.8117 27.2443 15.7714 27.1469C15.731 27.0494 15.7103 26.9449 15.7103 26.8394V22.4218C15.7103 22.237 15.7746 22.0563 15.8911 21.9117L21.3511 15.237C21.6324 14.8957 22.1386 14.8435 22.4801 15.1246C22.8216 15.4057 22.8738 15.9117 22.5926 16.2531L17.3174 22.7069V24.6667L18.3138 23.5021C18.4399 23.356 18.6141 23.2598 18.805 23.2311C18.9959 23.2024 19.1908 23.2429 19.3544 23.3455L22.8096 25.5463L26.1965 10.6427L11.3069 18.0844L14.5291 20.1326C14.9028 20.3696 15.0153 20.8676 14.7742 21.241C14.5372 21.6145 14.039 21.727 13.6653 21.486L9.24587 18.6748C9.00079 18.5182 8.86017 18.2451 8.87624 17.9559C8.89231 17.6667 9.06106 17.4097 9.31819 17.2772L26.996 8.44185C27.1322 8.37351 27.2852 8.34551 27.4368 8.36116C27.5884 8.37682 27.7324 8.43547 27.8518 8.53021C28.0968 8.72298 28.2093 9.03623 28.141 9.34145L24.1233 27.0121C24.0671 27.2651 23.8863 27.478 23.6452 27.5784C23.4042 27.6788 23.127 27.6547 22.91 27.5141L19.0771 25.0764L17.1205 27.3575C16.9679 27.5422 16.7429 27.6426 16.5139 27.6426Z" fill="white"/>
</g>
</g>
<defs>
<clipPath id="clip0_503_4642">
<rect width="20.5714" height="20.5714" fill="white" transform="translate(8.23047 7.71436)"/>
</clipPath>
<clipPath id="clip1_503_4642">
<rect width="20.5714" height="20.5714" fill="white" transform="translate(8.23047 7.71436)"/>
</clipPath>
</defs>
</svg>
